<svg width="85" height="85" viewBox="0 0 85 85" fill="none" xmlns="http://www.w3.org/2000/svg">
<ellipse cx="42.8014" cy="42.3246" rx="42.0358" ry="42.0355" fill="#017296"/>
<path d="M41.6146 59.4712C52.1109 59.4712 60.6199 50.9623 60.6199 40.4661C60.6199 29.9698 52.1109 21.4609 41.6146 21.4609C31.1183 21.4609 22.6094 29.9698 22.6094 40.4661C22.6094 50.9623 31.1183 59.4712 41.6146 59.4712Z" fill="#F5EFCA" stroke="#4393BC" stroke-width="3.94084" stroke-linecap="round" stroke-linejoin="round"/>
<path d="M65.7872 65.9708L55.4531 55.6367" stroke="#4393BC" stroke-width="2.62723" stroke-linecap="round" stroke-linejoin="round"/>
<ellipse cx="60.6255" cy="21.4614" rx="2.78178" ry="2.78176" fill="#88B9D3"/>
<ellipse cx="22.6099" cy="58.022" rx="2.78178" ry="2.78176" fill="#88B9D3"/>
<path d="M32.4297 40.4653C32.4297 40.4653 35.7678 33.7891 41.6096 33.7891C47.4513 33.7891 50.7894 40.4653 50.7894 40.4653C50.7894 40.4653 47.4513 47.1415 41.6096 47.1415C35.7678 47.1415 32.4297 40.4653 32.4297 40.4653Z" fill="#603E26" stroke="#35495E" stroke-width="2.62723" stroke-linecap="round" stroke-linejoin="round"/>
<path d="M41.6116 43.8032C43.4552 43.8032 44.9497 42.3087 44.9497 40.4651C44.9497 38.6215 43.4552 37.127 41.6116 37.127C39.768 37.127 38.2734 38.6215 38.2734 40.4651C38.2734 42.3087 39.768 43.8032 41.6116 43.8032Z" fill="#ECF0F1" stroke="#F0C419" stroke-width="1.31361" stroke-linecap="round" stroke-linejoin="round"/>
</svg>
