<svg width="86" height="85" viewBox="0 0 86 85" fill="none" xmlns="http://www.w3.org/2000/svg">
<ellipse cx="43.0202" cy="42.3246" rx="42.0358" ry="42.0355" fill="#017296"/>
<g clip-path="url(#clip0_7415_56435)">
<path d="M66 41.5C65.9957 38.9776 65.084 36.541 63.4316 34.6352C61.7792 32.7294 59.4963 31.4817 57 31.12V24.25C57 23.6533 56.7629 23.081 56.341 22.659C55.919 22.2371 55.3467 22 54.75 22H48V20.5C48 20.1022 47.842 19.7206 47.5607 19.4393C47.2794 19.158 46.8978 19 46.5 19H34.5C34.1022 19 33.7206 19.158 33.4393 19.4393C33.158 19.7206 33 20.1022 33 20.5V22H26.25C25.6533 22 25.081 22.2371 24.659 22.659C24.2371 23.081 24 23.6533 24 24.25V58C24 58.5967 24.2371 59.169 24.659 59.591C25.081 60.0129 25.6533 60.25 26.25 60.25H52.5V61C52.5 61.7957 52.8161 62.5587 53.3787 63.1213C53.9413 63.6839 54.7043 64 55.5 64C56.2957 64 57.0587 63.6839 57.6213 63.1213C58.1839 62.5587 58.5 61.7957 58.5 61V53.5C58.5 53.3011 58.421 53.1103 58.2803 52.9697C58.1397 52.829 57.9489 52.75 57.75 52.75V51.7506C60.0863 51.2358 62.1772 49.9395 63.6771 48.0757C65.1771 46.212 65.9965 43.8924 66 41.5ZM64.5 41.5C64.5 43.28 63.9722 45.0201 62.9832 46.5001C61.9943 47.9802 60.5887 49.1337 58.9442 49.8149C57.2996 50.4961 55.49 50.6743 53.7442 50.3271C51.9984 49.9798 50.3947 49.1226 49.136 47.864C47.8774 46.6053 47.0202 45.0016 46.6729 43.2558C46.3257 41.51 46.5039 39.7004 47.1851 38.0558C47.8663 36.4113 49.0198 35.0057 50.4999 34.0168C51.9799 33.0278 53.72 32.5 55.5 32.5C57.8869 32.5 60.1761 33.4482 61.864 35.136C63.5518 36.8239 64.5 39.1131 64.5 41.5ZM54.75 23.5C54.9489 23.5 55.1397 23.579 55.2803 23.7197C55.421 23.8603 55.5 24.0511 55.5 24.25V31C54.9978 31.0039 54.4965 31.044 54 31.12V26.5C54 26.1022 53.842 25.7206 53.5607 25.4393C53.2794 25.158 52.8978 25 52.5 25H48V23.5H54.75ZM34.5 20.5H46.5V28H34.5V20.5ZM26.25 58.75C26.0511 58.75 25.8603 58.671 25.7197 58.5303C25.579 58.3897 25.5 58.1989 25.5 58V24.25C25.5 24.0511 25.579 23.8603 25.7197 23.7197C25.8603 23.579 26.0511 23.5 26.25 23.5H33V25H28.5C28.1022 25 27.7206 25.158 27.4393 25.4393C27.158 25.7206 27 26.1022 27 26.5V55.75C27 56.1478 27.158 56.5294 27.4393 56.8107C27.7206 57.092 28.1022 57.25 28.5 57.25H52.5V58.75H26.25ZM57 61C57 61.3978 56.842 61.7794 56.5607 62.0607C56.2794 62.342 55.8978 62.5 55.5 62.5C55.1022 62.5 54.7206 62.342 54.4393 62.0607C54.158 61.7794 54 61.3978 54 61V54.25H57V61ZM56.25 52.75H54.75V51.9616C54.9994 51.9803 55.2469 52 55.5 52C55.7531 52 56.0006 51.9803 56.25 51.9616V52.75Z" fill="#FBFDFE"/>
<path d="M48 41.5C48.0022 43.4884 48.7931 45.3948 50.1992 46.8008C51.6052 48.2069 53.5116 48.9978 55.5 49V47.5C53.9087 47.5 52.3826 46.8679 51.2574 45.7426C50.1321 44.6174 49.5 43.0913 49.5 41.5C49.5 39.9087 50.1321 38.3826 51.2574 37.2574C52.3826 36.1321 53.9087 35.5 55.5 35.5V34C53.5116 34.0022 51.6052 34.7931 50.1992 36.1992C48.7931 37.6052 48.0022 39.5116 48 41.5Z" fill="#FBFDFE"/>
<path d="M31.5 34.0011V40.0011C31.5 40.2 31.579 40.3908 31.7197 40.5314C31.8603 40.6721 32.0511 40.7511 32.25 40.7511H38.25C38.4489 40.7511 38.6397 40.6721 38.7803 40.5314C38.921 40.3908 39 40.2 39 40.0011V34.5261L40.3191 32.9867L39.1809 32.0117L38.1197 33.2511H32.25C32.0511 33.2511 31.8603 33.3301 31.7197 33.4708C31.579 33.6114 31.5 33.8022 31.5 34.0011ZM33 34.7511H36.8334L35.2069 36.6477L34.2806 35.7205L33.2194 36.7817L34.7194 38.2817C34.7891 38.3513 34.8718 38.4066 34.9629 38.4442C35.0539 38.4818 35.1515 38.5012 35.25 38.5011H35.2791C35.3822 38.497 35.4834 38.4717 35.5764 38.4267C35.6693 38.3817 35.7519 38.318 35.8191 38.2395L37.5 36.2783V39.2511H33V34.7511Z" fill="#017296"/>
<path d="M31.5 45.9894V51.9894C31.5 52.1883 31.579 52.3791 31.7197 52.5197C31.8603 52.6604 32.0511 52.7394 32.25 52.7394H38.25C38.4489 52.7394 38.6397 52.6604 38.7803 52.5197C38.921 52.3791 39 52.1883 39 51.9894V46.5144L40.3191 44.975L39.1809 44L38.1197 45.2394H32.25C32.0511 45.2394 31.8603 45.3184 31.7197 45.459C31.579 45.5997 31.5 45.7905 31.5 45.9894ZM33 46.7394H36.8334L35.2069 48.6359L34.2806 47.7087L33.2194 48.77L34.7194 50.27C34.7891 50.3396 34.8718 50.3948 34.9629 50.4325C35.0539 50.4701 35.1515 50.4895 35.25 50.4894H35.2791C35.3822 50.4853 35.4834 50.46 35.5764 50.4149C35.6693 50.3699 35.7519 50.3062 35.8191 50.2278L37.5 48.2666V51.2394H33V46.7394Z" fill="#017296"/>
</g>
<defs>
<clipPath id="clip0_7415_56435">
<rect width="42" height="45" fill="white" transform="translate(24 19)"/>
</clipPath>
</defs>
</svg>
