<svg width="85" height="85" viewBox="0 0 85 85" fill="none" xmlns="http://www.w3.org/2000/svg">
<ellipse cx="42.4186" cy="42.3246" rx="42.0358" ry="42.0355" fill="#017296"/>
<g clip-path="url(#clip0_7415_56426)">
<path d="M66 42.5C65.9957 39.9776 65.084 37.541 63.4316 35.6352C61.7792 33.7294 59.4963 32.4817 57 32.12V25.25C57 24.6533 56.7629 24.081 56.341 23.659C55.919 23.2371 55.3467 23 54.75 23H48V21.5C48 21.1022 47.842 20.7206 47.5607 20.4393C47.2794 20.158 46.8978 20 46.5 20H34.5C34.1022 20 33.7206 20.158 33.4393 20.4393C33.158 20.7206 33 21.1022 33 21.5V23H26.25C25.6533 23 25.081 23.2371 24.659 23.659C24.2371 24.081 24 24.6533 24 25.25V59C24 59.5967 24.2371 60.169 24.659 60.591C25.081 61.0129 25.6533 61.25 26.25 61.25H52.5V62C52.5 62.7957 52.8161 63.5587 53.3787 64.1213C53.9413 64.6839 54.7043 65 55.5 65C56.2957 65 57.0587 64.6839 57.6213 64.1213C58.1839 63.5587 58.5 62.7957 58.5 62V54.5C58.5 54.3011 58.421 54.1103 58.2803 53.9697C58.1397 53.829 57.9489 53.75 57.75 53.75V52.7506C60.0863 52.2358 62.1772 50.9395 63.6771 49.0757C65.1771 47.212 65.9965 44.8924 66 42.5ZM64.5 42.5C64.5 44.28 63.9722 46.0201 62.9832 47.5001C61.9943 48.9802 60.5887 50.1337 58.9442 50.8149C57.2996 51.4961 55.49 51.6743 53.7442 51.3271C51.9984 50.9798 50.3947 50.1226 49.136 48.864C47.8774 47.6053 47.0202 46.0016 46.6729 44.2558C46.3257 42.51 46.5039 40.7004 47.1851 39.0558C47.8663 37.4113 49.0198 36.0057 50.4999 35.0168C51.9799 34.0278 53.72 33.5 55.5 33.5C57.8869 33.5 60.1761 34.4482 61.864 36.136C63.5518 37.8239 64.5 40.1131 64.5 42.5ZM54.75 24.5C54.9489 24.5 55.1397 24.579 55.2803 24.7197C55.421 24.8603 55.5 25.0511 55.5 25.25V32C54.9978 32.0039 54.4965 32.044 54 32.12V27.5C54 27.1022 53.842 26.7206 53.5607 26.4393C53.2794 26.158 52.8978 26 52.5 26H48V24.5H54.75ZM34.5 21.5H46.5V29H34.5V21.5ZM26.25 59.75C26.0511 59.75 25.8603 59.671 25.7197 59.5303C25.579 59.3897 25.5 59.1989 25.5 59V25.25C25.5 25.0511 25.579 24.8603 25.7197 24.7197C25.8603 24.579 26.0511 24.5 26.25 24.5H33V26H28.5C28.1022 26 27.7206 26.158 27.4393 26.4393C27.158 26.7206 27 27.1022 27 27.5V56.75C27 57.1478 27.158 57.5294 27.4393 57.8107C27.7206 58.092 28.1022 58.25 28.5 58.25H52.5V59.75H26.25ZM57 62C57 62.3978 56.842 62.7794 56.5607 63.0607C56.2794 63.342 55.8978 63.5 55.5 63.5C55.1022 63.5 54.7206 63.342 54.4393 63.0607C54.158 62.7794 54 62.3978 54 62V55.25H57V62ZM56.25 53.75H54.75V52.9616C54.9994 52.9803 55.2469 53 55.5 53C55.7531 53 56.0006 52.9803 56.25 52.9616V53.75Z" fill="#FBFDFE"/>
<path d="M48 42.5C48.0022 44.4884 48.7931 46.3948 50.1992 47.8008C51.6052 49.2069 53.5116 49.9978 55.5 50V48.5C53.9087 48.5 52.3826 47.8679 51.2574 46.7426C50.1321 45.6174 49.5 44.0913 49.5 42.5C49.5 40.9087 50.1321 39.3826 51.2574 38.2574C52.3826 37.1321 53.9087 36.5 55.5 36.5V35C53.5116 35.0022 51.6052 35.7931 50.1992 37.1992C48.7931 38.6052 48.0022 40.5116 48 42.5Z" fill="#FBFDFE"/>
<path d="M31.5 34.9991V40.9991C31.5 41.1981 31.579 41.3888 31.7197 41.5295C31.8603 41.6701 32.0511 41.7491 32.25 41.7491H38.25C38.4489 41.7491 38.6397 41.6701 38.7803 41.5295C38.921 41.3888 39 41.1981 39 40.9991V35.5241L40.3191 33.9848L39.1809 33.0098L38.1197 34.2491H32.25C32.0511 34.2491 31.8603 34.3282 31.7197 34.4688C31.579 34.6095 31.5 34.8002 31.5 34.9991ZM33 35.7491H36.8334L35.2069 37.6457L34.2806 36.7185L33.2194 37.7798L34.7194 39.2798C34.7891 39.3494 34.8718 39.4046 34.9629 39.4422C35.0539 39.4799 35.1515 39.4992 35.25 39.4991H35.2791C35.3822 39.4951 35.4834 39.4697 35.5764 39.4247C35.6693 39.3797 35.7519 39.316 35.8191 39.2376L37.5 37.2763V40.2491H33V35.7491Z" fill="#017296"/>
</g>
<defs>
<clipPath id="clip0_7415_56426">
<rect width="42" height="45" fill="white" transform="translate(24 20)"/>
</clipPath>
</defs>
</svg>
