<svg width="85" height="85" viewBox="0 0 85 85" fill="none" xmlns="http://www.w3.org/2000/svg">
<ellipse cx="42.8014" cy="42.3246" rx="42.0358" ry="42.0355" fill="#017296"/>
<path d="M63.4906 28.7031C63.4906 28.6375 63.4719 28.5719 63.4531 28.5063C63.4437 28.4781 63.4344 28.4594 63.425 28.4406C63.3875 28.3562 63.3406 28.2812 63.275 28.225L54.275 19.225C54.2094 19.1594 54.1344 19.1125 54.0594 19.075C54.0312 19.0656 54.0125 19.0562 53.9844 19.0469C53.9188 19.0281 53.8625 19.0094 53.7969 19.0094C53.7875 19.0094 53.7687 19 53.75 19H28.25C27.8375 19 27.5 19.3375 27.5 19.75V63.25C27.5 63.6625 27.8375 64 28.25 64H62.75C63.1625 64 63.5 63.6625 63.5 63.25V28.75C63.5 28.7312 63.4906 28.7219 63.4906 28.7031ZM62 62.5H29V20.5H53V28.75C53 29.1625 53.3375 29.5 53.75 29.5H62V62.5Z" fill="#FBFDFE"/>
<path d="M58.25 33.25C57.0031 33.25 56 34.2531 56 35.5V36.25H54.5C54.0875 36.25 53.75 36.5875 53.75 37V41.5H55.25V37.75H56V57.25C56 57.4469 56.075 57.6438 56.2156 57.7844L57.7156 59.2844C58.0062 59.575 58.4844 59.575 58.775 59.2844L60.275 57.7844C60.4156 57.6438 60.4906 57.4563 60.4906 57.25V35.5C60.5 34.2531 59.4969 33.25 58.25 33.25ZM59 38.5H57.5V35.5C57.5 35.0875 57.8375 34.75 58.25 34.75C58.6625 34.75 59 35.0875 59 35.5V38.5Z" fill="#FBFDFE"/>
<path d="M50 23.5H32V25H50V23.5Z" fill="#FBFDFE"/>
<path d="M35 28H32V29.5H35V28Z" fill="#FBFDFE"/>
<path d="M50 28H36.5V29.5H50V28Z" fill="#FBFDFE"/>
<path d="M50.7531 34.75H46.2531V36.25H48.9438L43.6937 41.5H39.5031C39.3062 41.5 39.1094 41.575 38.9688 41.7156L35.2188 45.4656L36.2781 46.525L39.8125 42.9906H44.0031C44.2 42.9906 44.3969 42.9156 44.5375 42.775L50.0031 37.3094V40H51.5031V35.5C51.5031 35.0875 51.1656 34.75 50.7531 34.75Z" fill="#FBFDFE"/>
<path d="M33.5 48.25V32.5H32V49C32 49.4125 32.3375 49.75 32.75 49.75H51.5V48.25H33.5Z" fill="#FBFDFE"/>
<path d="M35 52.75H32V54.25H35V52.75Z" fill="#FBFDFE"/>
<path d="M44 52.75H36.5V54.25H44V52.75Z" fill="#FBFDFE"/>
<path d="M44 57.25H32V58.75H44V57.25Z" fill="#FBFDFE"/>
</svg>
