<svg width="85" height="85" viewBox="0 0 85 85" fill="none" xmlns="http://www.w3.org/2000/svg">
<ellipse cx="42.0358" cy="42.0355" rx="42.0358" ry="42.0355" fill="#017296"/>
<g clip-path="url(#clip0_7415_56406)">
<path d="M60.25 20H26.5C26.0875 20 25.75 20.3375 25.75 20.75V32H27.25V21.5H59.5V62.75C59.5094 63.1437 59.2 63.4719 58.8063 63.5C58.7406 63.5 58.675 63.4906 58.6094 63.4906C58.4781 63.4906 58.3469 63.4813 58.2156 63.4719C58.2062 63.4719 58.1969 63.4719 58.1781 63.4719C55.7312 63.2 53.7906 61.2688 53.5281 58.8219C53.5281 58.8125 53.5281 58.8031 53.5188 58.7937C53.5 58.6156 53.4906 58.4375 53.4906 58.2594V56.7594C53.4906 56.3469 53.1531 56.0094 52.7406 56.0094H27.25V42.5H25.75V56H19.75C19.3375 56 19 56.3375 19 56.75V58.25C19 61.9719 22.0281 65 25.75 65H58.825C60.0437 64.9719 61.0094 63.9688 61 62.75V20.75C61 20.3375 60.6625 20 60.25 20Z" fill="#FBFDFE"/>
<path d="M40.75 41.0004C40.9469 41.0004 41.1438 40.9254 41.2844 40.7848L44.2844 37.7848C44.575 37.4941 44.575 37.016 44.2844 36.7254L41.2844 33.7254C41.1438 33.5848 40.9563 33.5098 40.75 33.5098H19.75C17.6781 33.5098 16 35.1879 16 37.2598C16 39.3316 17.6781 41.0098 19.75 41.0098L40.75 41.0004ZM40.5531 35.1129L42.6906 37.2504L40.5531 39.3879L40.0188 37.2504L40.5531 35.1129ZM17.5 37.2504C17.5 36.0035 18.5031 35.0004 19.75 35.0004H20.5V39.5004H19.75C18.5031 39.5004 17.5 38.4973 17.5 37.2504Z" fill="#FBFDFE"/>
<path d="M33.2523 52.25H55.7523C56.1648 52.25 56.5023 51.9125 56.5023 51.5V29C56.5023 28.5875 56.1648 28.25 55.7523 28.25C55.5555 28.25 55.3586 28.325 55.218 28.4656L32.718 50.9656C32.4273 51.2562 32.4273 51.7344 32.718 52.025C32.8586 52.175 33.0555 52.25 33.2523 52.25ZM55.0023 30.8094V32.75H53.5023V34.25H55.0023V35.75H53.5023V37.25H55.0023V38.75H53.5023V40.25H55.0023V41.75H53.5023V43.25H55.0023V44.75H53.5023V46.25H55.0023V47.75H53.5023V49.25H55.0023V50.75H53.5023V49.25H52.0023V50.75H50.5023V49.25H49.0023V50.75H47.5023V49.25H46.0023V50.75H44.5023V49.25H43.0023V50.75H41.5023V49.25H40.0023V50.75H38.5023V49.25H37.0023V50.75H35.0617L55.0023 30.8094Z" fill="#FBFDFE"/>
<path d="M44.1117 47.7496H51.2461C51.6586 47.7496 51.9961 47.4121 51.9961 46.9996V39.8652C51.9961 39.4527 51.6586 39.1152 51.2461 39.1152C51.0492 39.1152 50.8523 39.1902 50.7117 39.3309L43.5773 46.4652C43.2867 46.7559 43.2867 47.234 43.5773 47.5246C43.718 47.6746 43.9148 47.7496 44.1117 47.7496Z" fill="#FBFDFE"/>
<path d="M50.5 24.5H35.5V26H50.5V24.5Z" fill="#FBFDFE"/>
<path d="M52.75 27.5H33.25V29H52.75V27.5Z" fill="#FBFDFE"/>
<path d="M33.25 43.25H28.75V44.75H33.25V43.25Z" fill="#FBFDFE"/>
<path d="M31.75 46.25H28.75V47.75H31.75V46.25Z" fill="#FBFDFE"/>
</g>
<defs>
<clipPath id="clip0_7415_56406">
<rect width="45" height="45" fill="white" transform="translate(16 20)"/>
</clipPath>
</defs>
</svg>
