<svg width="86" height="85" viewBox="0 0 86 85" fill="none" xmlns="http://www.w3.org/2000/svg">
<ellipse cx="43.0202" cy="42.3246" rx="42.0358" ry="42.0355" fill="#017296"/>
<path d="M46.0462 18.6797H29.4946C28.2404 18.6797 27.0376 19.1779 26.1507 20.0648C25.2639 20.9516 24.7656 22.1545 24.7656 23.4087V61.2406C24.7656 62.4948 25.2639 63.6977 26.1507 64.5845C27.0376 65.4714 28.2404 65.9696 29.4946 65.9696H57.8688C59.123 65.9696 60.3259 65.4714 61.2127 64.5845C62.0996 63.6977 62.5978 62.4948 62.5978 61.2406V35.2312L46.0462 18.6797Z" fill="#35495E" stroke="#35495E" stroke-width="5.25446" stroke-linecap="round" stroke-linejoin="round"/>
<path d="M44.7337 18.6797H28.1821C26.9279 18.6797 25.7251 19.1779 24.8382 20.0648C23.9514 20.9516 23.4531 22.1545 23.4531 23.4087V61.2406C23.4531 62.4948 23.9514 63.6977 24.8382 64.5845C25.7251 65.4714 26.9279 65.9696 28.1821 65.9696H56.5563C57.8105 65.9696 59.0134 65.4714 59.9002 64.5845C60.7871 63.6977 61.2853 62.4948 61.2853 61.2406V35.2312L44.7337 18.6797Z" stroke="#35495E" stroke-opacity="0.8" stroke-width="5.25446" stroke-linecap="round" stroke-linejoin="round"/>
<path d="M45.8959 20.1582H30.3788C29.2029 20.1582 28.0753 20.6253 27.2438 21.4567C26.4124 22.2882 25.9453 23.4158 25.9453 24.5916V60.0591C25.9453 61.2349 26.4124 62.3626 27.2438 63.194C28.0753 64.0254 29.2029 64.4925 30.3788 64.4925H56.9795C58.1554 64.4925 59.283 64.0254 60.1145 63.194C60.9459 62.3626 61.413 61.2349 61.413 60.0591V35.6752L45.8959 20.1582Z" fill="#ECF0F1"/>
<path d="M46.3516 20.6172L47.9341 33.2777L60.8275 35.1063" fill="#F0C419"/>
<path d="M35.7489 41.0111V44.0762C35.7489 44.3085 35.6566 44.5312 35.4924 44.6955C35.3282 44.8597 35.1054 44.952 34.8732 44.952H28.7429C28.5107 44.952 28.2879 44.8597 28.1237 44.6955C27.9595 44.5312 27.8672 44.3085 27.8672 44.0762V37.9461C27.8672 37.7138 27.9595 37.491 28.1237 37.3268C28.2879 37.1626 28.5107 37.0703 28.7429 37.0703H33.5595" stroke="#35495E" stroke-width="1.31361" stroke-linecap="round" stroke-linejoin="round"/>
<path d="M35.7411 27.8764V30.9415C35.7411 31.1737 35.6488 31.3965 35.4846 31.5607C35.3204 31.7249 35.0976 31.8172 34.8653 31.8172H28.7351C28.5029 31.8172 28.2801 31.7249 28.1159 31.5607C27.9516 31.3965 27.8594 31.1737 27.8594 30.9415V24.8113C27.8594 24.579 27.9516 24.3563 28.1159 24.192C28.2801 24.0278 28.5029 23.9355 28.7351 23.9355H33.5517" stroke="#35495E" stroke-width="1.31361" stroke-linecap="round" stroke-linejoin="round"/>
<path d="M35.7411 54.1479V57.2129C35.7411 57.4452 35.6488 57.668 35.4846 57.8322C35.3204 57.9964 35.0976 58.0887 34.8653 58.0887H28.7351C28.5029 58.0887 28.2801 57.9964 28.1159 57.8322C27.9516 57.668 27.8594 57.4452 27.8594 57.2129V51.0828C27.8594 50.8505 27.9516 50.6278 28.1159 50.4635C28.2801 50.2993 28.5029 50.207 28.7351 50.207H33.5517" stroke="#35495E" stroke-width="1.31361" stroke-linecap="round" stroke-linejoin="round"/>
<path d="M39.625 27.875H44.8795" stroke="#35495E" stroke-width="1.31361" stroke-linecap="round"/>
<path d="M39.625 41.0117H55.3884" stroke="#35495E" stroke-width="1.31361" stroke-linecap="round"/>
<path d="M39.625 54.1484H55.3884" stroke="#35495E" stroke-width="1.31361" stroke-linecap="round"/>
<path d="M30.625 40.5379L31.8073 41.7201L35.7481 37.7793" stroke="#309473" stroke-width="1.31361" stroke-linecap="round" stroke-linejoin="round"/>
</svg>
