<svg width="85" height="85" viewBox="0 0 85 85" fill="none" xmlns="http://www.w3.org/2000/svg">
<ellipse cx="42.6373" cy="42.3246" rx="42.0358" ry="42.0355" fill="#017296"/>
<rect width="32.3556" height="21.9556" transform="translate(27.4219 24.0938)" fill="#FBFDFE"/>
<path d="M66.4423 52.1673C66.0969 51.9337 65.6196 52.0149 65.386 52.3704L63.6391 54.9298C63.0704 55.7626 62.7555 56.7274 62.7149 57.7329L62.5321 62.547C62.5118 62.9735 62.8571 63.3392 63.2938 63.3392C63.7001 63.3392 64.0352 63.0142 64.0555 62.6079L64.2384 57.7939C64.2688 57.0829 64.4923 56.3923 64.8985 55.7931L66.6454 53.2337C66.879 52.8782 66.7876 52.4009 66.4423 52.1673Z" fill="#FBFDFE"/>
<mask id="path-3-inside-1_7415_56445" fill="white">
<path d="M67.9395 44.1276L63.348 36.9797V23.7122C63.348 22.0117 61.9664 20.627 60.27 20.627H25.7317C24.0353 20.627 22.6537 22.0117 22.6537 23.7122V29.5772C22.6537 29.9946 22.9991 30.3408 23.4156 30.3408C23.8321 30.3408 24.1775 29.9946 24.1775 29.5772V23.7122C24.1775 22.8467 24.8784 22.1441 25.7317 22.1441H60.2598C61.1233 22.1441 61.8141 22.8467 61.8141 23.702V46.7852C61.8141 46.999 61.7734 47.2129 61.682 47.4063L60.1278 45.7262V24.7304C60.1278 24.2315 59.7316 23.8344 59.244 23.8344H54.0734C53.6569 23.8344 53.3116 24.1806 53.3116 24.598C53.3116 25.0155 53.6569 25.3617 54.0734 25.3617H58.6142V44.0665L56.0746 41.3071C55.201 40.35 53.7585 40.3093 52.824 41.1137H40.634C40.2175 41.1137 39.8721 41.4599 39.8721 41.8773C39.8721 42.2948 40.2175 42.641 40.634 42.641H52.0113C51.9605 43.1196 52.0418 43.6083 52.2856 44.0462L52.8951 45.1459H33.1067L33.7162 44.0462C33.7873 43.9138 33.8482 43.7814 33.8888 43.6389L34.1428 43.8323C34.2749 43.9342 34.4374 43.9851 34.5999 43.9851C34.8133 43.9851 35.0266 43.8934 35.179 43.7203L37.4849 41.0322C37.7592 40.7166 37.7185 40.2278 37.4036 39.9529C37.0887 39.678 36.6011 39.7187 36.3268 40.0344L34.478 42.1828L33.513 41.4599C33.452 41.3784 33.3809 41.297 33.2997 41.2155C32.3549 40.2889 30.8312 40.3195 29.9271 41.3071L28.251 43.1196V25.3617H51.0361C51.4526 25.3617 51.798 25.0155 51.798 24.598C51.798 24.1806 51.4526 23.8344 51.0361 23.8344H27.611C27.1234 23.8344 26.7272 24.2417 26.7272 24.7304V44.7793L24.3095 47.4063C24.2283 47.2129 24.1775 46.999 24.1775 46.7852V32.6318C24.1775 32.2144 23.8321 31.8682 23.4156 31.8682C22.9991 31.8682 22.6537 32.2144 22.6537 32.6318V36.9899L18.0622 44.1378C16.6095 46.3983 16.6502 49.29 18.1638 51.5098L21.0995 55.8169C21.5059 56.4074 21.7293 57.0998 21.7598 57.8228L21.9427 62.6492C21.963 63.0565 22.2982 63.3925 22.735 63.3823C23.1515 63.3619 23.4867 63.0157 23.4664 62.5881L23.2836 57.7617C23.2429 56.7536 22.928 55.7863 22.3592 54.9514L19.4234 50.6443C18.2552 48.9337 18.2247 46.6936 19.3523 44.9524L22.6639 39.8002V46.7852C22.6639 47.4369 22.8671 48.058 23.2328 48.5773L22.8163 49.0253C22.5318 49.3308 22.5522 49.8195 22.8569 50.1046C23.1617 50.3897 23.6493 50.3694 23.9337 50.0639L31.0445 42.3355C31.3594 41.9995 31.8978 41.969 32.233 42.305C32.4972 42.5697 32.5581 42.977 32.3753 43.3029L28.0986 51.0414C27.7837 51.6116 27.8446 52.304 28.2611 52.8029C29.0941 53.811 29.3379 55.2161 28.9113 56.4482C28.6979 57.0591 28.5862 57.6904 28.5659 58.3421L28.4846 61.8855C28.4745 62.3132 28.8198 62.6695 29.2465 62.6695C29.663 62.6695 29.9982 62.3437 30.0084 61.9262L30.0896 58.3828C30.0998 57.8941 30.1912 57.4155 30.3436 56.9573C30.9531 55.2161 30.5975 53.2611 29.4293 51.8356C29.4192 51.8152 29.4192 51.7949 29.4293 51.7847L30.4756 49.8806H55.5057L56.5521 51.7847C56.5622 51.8051 56.5622 51.8254 56.5419 51.8356C55.3737 53.2611 55.0283 55.2161 55.6276 56.9573C55.7902 57.4155 55.8714 57.8941 55.8816 58.3828L55.9629 61.9262C55.973 62.3335 56.3083 62.6797 56.7451 62.6695C57.1615 62.6594 57.4968 62.3132 57.4866 61.8855L57.4053 58.3421C57.3952 57.7006 57.2733 57.0591 57.06 56.4482C56.6333 55.2161 56.8771 53.811 57.7101 52.8029C58.1266 52.304 58.1875 51.6116 57.8726 51.0414L53.596 43.3029C53.4131 42.977 53.4741 42.5697 53.7382 42.305C54.0734 41.969 54.6118 41.9995 54.9267 42.3355L62.0375 50.0639C62.322 50.3694 62.8096 50.3897 63.1143 50.1046C63.4191 49.8195 63.4394 49.3308 63.155 49.0253L62.7385 48.5773C63.1042 48.058 63.3073 47.4369 63.3073 46.7852V39.8103L66.6189 44.9626C67.584 46.4594 67.7059 48.3227 66.9542 49.9315C66.7713 50.3184 66.944 50.7665 67.3199 50.9497C67.6957 51.1228 68.1529 50.9701 68.3357 50.5832C69.3515 48.4856 69.189 46.0724 67.9395 44.1276ZM31.3289 48.3431L32.2534 46.663H53.7382L54.6626 48.3431H31.3289Z"/>
</mask>
<path d="M67.9395 44.1276L63.348 36.9797V23.7122C63.348 22.0117 61.9664 20.627 60.27 20.627H25.7317C24.0353 20.627 22.6537 22.0117 22.6537 23.7122V29.5772C22.6537 29.9946 22.9991 30.3408 23.4156 30.3408C23.8321 30.3408 24.1775 29.9946 24.1775 29.5772V23.7122C24.1775 22.8467 24.8784 22.1441 25.7317 22.1441H60.2598C61.1233 22.1441 61.8141 22.8467 61.8141 23.702V46.7852C61.8141 46.999 61.7734 47.2129 61.682 47.4063L60.1278 45.7262V24.7304C60.1278 24.2315 59.7316 23.8344 59.244 23.8344H54.0734C53.6569 23.8344 53.3116 24.1806 53.3116 24.598C53.3116 25.0155 53.6569 25.3617 54.0734 25.3617H58.6142V44.0665L56.0746 41.3071C55.201 40.35 53.7585 40.3093 52.824 41.1137H40.634C40.2175 41.1137 39.8721 41.4599 39.8721 41.8773C39.8721 42.2948 40.2175 42.641 40.634 42.641H52.0113C51.9605 43.1196 52.0418 43.6083 52.2856 44.0462L52.8951 45.1459H33.1067L33.7162 44.0462C33.7873 43.9138 33.8482 43.7814 33.8888 43.6389L34.1428 43.8323C34.2749 43.9342 34.4374 43.9851 34.5999 43.9851C34.8133 43.9851 35.0266 43.8934 35.179 43.7203L37.4849 41.0322C37.7592 40.7166 37.7185 40.2278 37.4036 39.9529C37.0887 39.678 36.6011 39.7187 36.3268 40.0344L34.478 42.1828L33.513 41.4599C33.452 41.3784 33.3809 41.297 33.2997 41.2155C32.3549 40.2889 30.8312 40.3195 29.9271 41.3071L28.251 43.1196V25.3617H51.0361C51.4526 25.3617 51.798 25.0155 51.798 24.598C51.798 24.1806 51.4526 23.8344 51.0361 23.8344H27.611C27.1234 23.8344 26.7272 24.2417 26.7272 24.7304V44.7793L24.3095 47.4063C24.2283 47.2129 24.1775 46.999 24.1775 46.7852V32.6318C24.1775 32.2144 23.8321 31.8682 23.4156 31.8682C22.9991 31.8682 22.6537 32.2144 22.6537 32.6318V36.9899L18.0622 44.1378C16.6095 46.3983 16.6502 49.29 18.1638 51.5098L21.0995 55.8169C21.5059 56.4074 21.7293 57.0998 21.7598 57.8228L21.9427 62.6492C21.963 63.0565 22.2982 63.3925 22.735 63.3823C23.1515 63.3619 23.4867 63.0157 23.4664 62.5881L23.2836 57.7617C23.2429 56.7536 22.928 55.7863 22.3592 54.9514L19.4234 50.6443C18.2552 48.9337 18.2247 46.6936 19.3523 44.9524L22.6639 39.8002V46.7852C22.6639 47.4369 22.8671 48.058 23.2328 48.5773L22.8163 49.0253C22.5318 49.3308 22.5522 49.8195 22.8569 50.1046C23.1617 50.3897 23.6493 50.3694 23.9337 50.0639L31.0445 42.3355C31.3594 41.9995 31.8978 41.969 32.233 42.305C32.4972 42.5697 32.5581 42.977 32.3753 43.3029L28.0986 51.0414C27.7837 51.6116 27.8446 52.304 28.2611 52.8029C29.0941 53.811 29.3379 55.2161 28.9113 56.4482C28.6979 57.0591 28.5862 57.6904 28.5659 58.3421L28.4846 61.8855C28.4745 62.3132 28.8198 62.6695 29.2465 62.6695C29.663 62.6695 29.9982 62.3437 30.0084 61.9262L30.0896 58.3828C30.0998 57.8941 30.1912 57.4155 30.3436 56.9573C30.9531 55.2161 30.5975 53.2611 29.4293 51.8356C29.4192 51.8152 29.4192 51.7949 29.4293 51.7847L30.4756 49.8806H55.5057L56.5521 51.7847C56.5622 51.8051 56.5622 51.8254 56.5419 51.8356C55.3737 53.2611 55.0283 55.2161 55.6276 56.9573C55.7902 57.4155 55.8714 57.8941 55.8816 58.3828L55.9629 61.9262C55.973 62.3335 56.3083 62.6797 56.7451 62.6695C57.1615 62.6594 57.4968 62.3132 57.4866 61.8855L57.4053 58.3421C57.3952 57.7006 57.2733 57.0591 57.06 56.4482C56.6333 55.2161 56.8771 53.811 57.7101 52.8029C58.1266 52.304 58.1875 51.6116 57.8726 51.0414L53.596 43.3029C53.4131 42.977 53.4741 42.5697 53.7382 42.305C54.0734 41.969 54.6118 41.9995 54.9267 42.3355L62.0375 50.0639C62.322 50.3694 62.8096 50.3897 63.1143 50.1046C63.4191 49.8195 63.4394 49.3308 63.155 49.0253L62.7385 48.5773C63.1042 48.058 63.3073 47.4369 63.3073 46.7852V39.8103L66.6189 44.9626C67.584 46.4594 67.7059 48.3227 66.9542 49.9315C66.7713 50.3184 66.944 50.7665 67.3199 50.9497C67.6957 51.1228 68.1529 50.9701 68.3357 50.5832C69.3515 48.4856 69.189 46.0724 67.9395 44.1276ZM31.3289 48.3431L32.2534 46.663H53.7382L54.6626 48.3431H31.3289Z" fill="#FBFDFE"/>
<path d="M33.4234 41.5329C33.5664 41.7084 33.7593 42.0269 33.864 42.4019C33.9685 42.776 33.9828 43.196 33.7857 43.5868L33.992 43.6909C34.223 43.2329 34.2011 42.7497 34.0866 42.3397C33.9723 41.9305 33.7632 41.584 33.6026 41.3869L33.4234 41.5329ZM67.9395 44.1276L67.7451 44.2525L67.7451 44.2525L67.9395 44.1276ZM63.348 36.9797H63.1169V37.0475L63.1535 37.1046L63.348 36.9797ZM61.682 47.4063L61.5123 47.5633L61.7447 47.8145L61.891 47.5051L61.682 47.4063ZM60.1278 45.7262H59.8967V45.8167L59.9581 45.8832L60.1278 45.7262ZM58.6142 25.3617H58.8453V25.1306H58.6142V25.3617ZM58.6142 44.0665L58.4441 44.223L58.8453 44.6589V44.0665H58.6142ZM56.0746 41.3071L55.9039 41.4629L55.9046 41.4636L56.0746 41.3071ZM52.824 41.1137V41.3448H52.9097L52.9747 41.2888L52.824 41.1137ZM52.0113 42.641L52.2411 42.6654L52.2682 42.4099H52.0113V42.641ZM52.2856 44.0462L52.4877 43.9341L52.4875 43.9337L52.2856 44.0462ZM52.8951 45.1459V45.377H53.2874L53.0972 45.0338L52.8951 45.1459ZM33.1067 45.1459L32.9045 45.0338L32.7143 45.377H33.1067V45.1459ZM33.7162 44.0462L33.9183 44.1582L33.9197 44.1555L33.7162 44.0462ZM33.8888 43.6389L34.0289 43.455L33.7594 43.2498L33.6666 43.5755L33.8888 43.6389ZM34.1428 43.8323L34.2839 43.6493L34.2829 43.6485L34.1428 43.8323ZM35.179 43.7203L35.3524 43.8731L35.3544 43.8708L35.179 43.7203ZM37.4849 41.0322L37.3104 40.8806L37.3095 40.8817L37.4849 41.0322ZM36.3268 40.0344L36.1524 39.8828L36.1517 39.8836L36.3268 40.0344ZM34.478 42.1828L34.3395 42.3678L34.5123 42.4973L34.6532 42.3336L34.478 42.1828ZM33.513 41.4599L33.3279 41.5983L33.3478 41.6249L33.3744 41.6448L33.513 41.4599ZM33.2997 41.2155L33.4633 41.0523L33.4615 41.0505L33.2997 41.2155ZM29.9271 41.3071L30.0968 41.4641L30.0976 41.4632L29.9271 41.3071ZM28.251 43.1196H28.0199V43.7099L28.4207 43.2765L28.251 43.1196ZM28.251 25.3617V25.1306H28.0199V25.3617H28.251ZM26.7272 44.7793L26.8973 44.9358L26.9583 44.8694V44.7793H26.7272ZM24.3095 47.4063L24.0965 47.4958L24.2359 47.8277L24.4796 47.5628L24.3095 47.4063ZM22.6537 36.9899L22.8482 37.1148L22.8849 37.0577V36.9899H22.6537ZM18.0622 44.1378L18.2566 44.2628L18.2566 44.2627L18.0622 44.1378ZM18.1638 51.5098L18.3547 51.3796L18.3547 51.3796L18.1638 51.5098ZM21.0995 55.8169L20.9085 55.947L20.9091 55.9479L21.0995 55.8169ZM21.7598 57.8228L21.9908 57.814L21.9907 57.813L21.7598 57.8228ZM21.9427 62.6492L21.7117 62.6579L21.7118 62.6607L21.9427 62.6492ZM22.735 63.3823L22.7404 63.6134L22.7463 63.6131L22.735 63.3823ZM23.4664 62.5881L23.2355 62.5968L23.2356 62.599L23.4664 62.5881ZM23.2836 57.7617L23.5145 57.7529L23.5145 57.7524L23.2836 57.7617ZM22.3592 54.9514L22.5501 54.8212L22.5501 54.8212L22.3592 54.9514ZM19.4234 50.6443L19.6144 50.5141L19.6143 50.5139L19.4234 50.6443ZM19.3523 44.9524L19.5463 45.078L19.5467 45.0774L19.3523 44.9524ZM22.6639 39.8002H22.895V39.0132L22.4695 39.6752L22.6639 39.8002ZM23.2328 48.5773L23.402 48.7346L23.5296 48.5974L23.4217 48.4442L23.2328 48.5773ZM22.8163 49.0253L22.9854 49.1828L22.9855 49.1827L22.8163 49.0253ZM23.9337 50.0639L24.1028 50.2214L24.1038 50.2204L23.9337 50.0639ZM31.0445 42.3355L30.8759 42.1775L30.8744 42.1791L31.0445 42.3355ZM32.233 42.305L32.3967 42.1418L32.233 42.305ZM32.3753 43.3029L32.1737 43.1898L32.173 43.1911L32.3753 43.3029ZM28.0986 51.0414L27.8963 50.9296L27.8963 50.9297L28.0986 51.0414ZM28.2611 52.8029L28.4393 52.6557L28.4386 52.6548L28.2611 52.8029ZM28.9113 56.4482L29.1295 56.5244L29.1297 56.5238L28.9113 56.4482ZM28.5659 58.3421L28.3349 58.3349L28.3348 58.3368L28.5659 58.3421ZM28.4846 61.8855L28.7157 61.891L28.7157 61.8908L28.4846 61.8855ZM30.0084 61.9262L30.2394 61.9319L30.2394 61.9315L30.0084 61.9262ZM30.0896 58.3828L30.3207 58.3881L30.3207 58.3876L30.0896 58.3828ZM30.3436 56.9573L30.1254 56.8809L30.1243 56.8844L30.3436 56.9573ZM29.4293 51.8356L29.2225 51.9388L29.2341 51.962L29.2506 51.9821L29.4293 51.8356ZM29.4293 51.7847L29.593 51.9479L29.6161 51.9247L29.6319 51.896L29.4293 51.7847ZM30.4756 49.8806V49.6495H30.3389L30.2731 49.7693L30.4756 49.8806ZM55.5057 49.8806L55.7083 49.7693L55.6425 49.6495H55.5057V49.8806ZM56.5521 51.7847L56.759 51.6814L56.7546 51.6734L56.5521 51.7847ZM56.5419 51.8356L56.4383 51.629L56.3943 51.651L56.3631 51.6891L56.5419 51.8356ZM55.6276 56.9573L55.4091 57.0325L55.4098 57.0345L55.6276 56.9573ZM55.8816 58.3828L55.6505 58.3876L55.6506 58.3881L55.8816 58.3828ZM55.9629 61.9262L55.7318 61.9315L55.7318 61.932L55.9629 61.9262ZM56.7451 62.6695L56.7504 62.9006L56.7507 62.9006L56.7451 62.6695ZM57.4866 61.8855L57.2556 61.8908L57.2556 61.891L57.4866 61.8855ZM57.4053 58.3421L57.1743 58.3457L57.1743 58.3474L57.4053 58.3421ZM57.06 56.4482L56.8416 56.5238L56.8418 56.5244L57.06 56.4482ZM57.7101 52.8029L57.5327 52.6548L57.5319 52.6557L57.7101 52.8029ZM57.8726 51.0414L58.0749 50.9297L58.0749 50.9296L57.8726 51.0414ZM53.596 43.3029L53.7983 43.1911L53.7975 43.1898L53.596 43.3029ZM53.7382 42.305L53.5746 42.1418L53.7382 42.305ZM54.9267 42.3355L55.0968 42.1791L55.0953 42.1775L54.9267 42.3355ZM62.0375 50.0639L61.8675 50.2204L61.8684 50.2214L62.0375 50.0639ZM63.155 49.0253L62.9857 49.1827L62.9858 49.1828L63.155 49.0253ZM62.7385 48.5773L62.5495 48.4442L62.4416 48.5974L62.5692 48.7346L62.7385 48.5773ZM63.3073 39.8103L63.5017 39.6854L63.0762 39.0233V39.8103H63.3073ZM66.6189 44.9626L66.4245 45.0875L66.4247 45.0878L66.6189 44.9626ZM66.9542 49.9315L67.1631 50.0303L67.1636 50.0294L66.9542 49.9315ZM67.3199 50.9497L67.2185 51.1575L67.2232 51.1597L67.3199 50.9497ZM68.3357 50.5832L68.1277 50.4824L68.1267 50.4844L68.3357 50.5832ZM31.3289 48.3431L31.1265 48.2317L30.938 48.5742H31.3289V48.3431ZM32.2534 46.663V46.4319H32.1167L32.0509 46.5516L32.2534 46.663ZM53.7382 46.663L53.9407 46.5516L53.8748 46.4319H53.7382V46.663ZM54.6626 48.3431V48.5742H55.0536L54.8651 48.2317L54.6626 48.3431ZM68.134 44.0027L63.5424 36.8548L63.1535 37.1046L67.7451 44.2525L68.134 44.0027ZM63.5791 36.9797V23.7122H63.1169V36.9797H63.5791ZM63.5791 23.7122C63.5791 21.8846 62.0946 20.3958 60.27 20.3958V20.8581C61.8383 20.8581 63.1169 22.1389 63.1169 23.7122H63.5791ZM60.27 20.3958H25.7317V20.8581H60.27V20.3958ZM25.7317 20.3958C23.9071 20.3958 22.4226 21.8846 22.4226 23.7122H22.8849C22.8849 22.1389 24.1634 20.8581 25.7317 20.8581V20.3958ZM22.4226 23.7122V29.5772H22.8849V23.7122H22.4226ZM22.4226 29.5772C22.4226 30.1218 22.871 30.5719 23.4156 30.5719V30.1097C23.1273 30.1097 22.8849 29.8675 22.8849 29.5772H22.4226ZM23.4156 30.5719C23.9603 30.5719 24.4086 30.1218 24.4086 29.5772H23.9464C23.9464 29.8675 23.704 30.1097 23.4156 30.1097V30.5719ZM24.4086 29.5772V23.7122H23.9464V29.5772H24.4086ZM24.4086 23.7122C24.4086 22.9728 25.0075 22.3752 25.7317 22.3752V21.913C24.7493 21.913 23.9464 22.7205 23.9464 23.7122H24.4086ZM25.7317 22.3752H60.2598V21.913H25.7317V22.3752ZM60.2598 22.3752C60.9942 22.3752 61.583 22.9728 61.583 23.702H62.0452C62.0452 22.7205 61.2524 21.913 60.2598 21.913V22.3752ZM61.583 23.702V46.7852H62.0452V23.702H61.583ZM61.583 46.7852C61.583 46.9704 61.5477 47.1496 61.473 47.3076L61.891 47.5051C61.9991 47.2761 62.0452 47.0277 62.0452 46.7852H61.583ZM61.8517 47.2494L60.2974 45.5693L59.9581 45.8832L61.5123 47.5633L61.8517 47.2494ZM60.3589 45.7262V24.7304H59.8967V45.7262H60.3589ZM60.3589 24.7304C60.3589 24.1061 59.8615 23.6033 59.244 23.6033V24.0655C59.6017 24.0655 59.8967 24.3569 59.8967 24.7304H60.3589ZM59.244 23.6033H54.0734V24.0655H59.244V23.6033ZM54.0734 23.6033C53.5288 23.6033 53.0804 24.0534 53.0804 24.598H53.5427C53.5427 24.3077 53.7851 24.0655 54.0734 24.0655V23.6033ZM53.0804 24.598C53.0804 25.1426 53.5288 25.5928 54.0734 25.5928V25.1306C53.7851 25.1306 53.5427 24.8884 53.5427 24.598H53.0804ZM54.0734 25.5928H58.6142V25.1306H54.0734V25.5928ZM58.3831 25.3617V44.0665H58.8453V25.3617H58.3831ZM58.7842 43.91L56.2447 41.1506L55.9046 41.4636L58.4441 44.223L58.7842 43.91ZM56.2453 41.1513C55.2844 40.0986 53.6991 40.0555 52.6732 40.9385L52.9747 41.2888C53.8179 40.5631 55.1175 40.6014 55.9039 41.4629L56.2453 41.1513ZM52.824 40.8826H40.634V41.3448H52.824V40.8826ZM40.634 40.8826C40.0893 40.8826 39.641 41.3327 39.641 41.8773H40.1032C40.1032 41.587 40.3456 41.3448 40.634 41.3448V40.8826ZM39.641 41.8773C39.641 42.4219 40.0893 42.8721 40.634 42.8721V42.4099C40.3456 42.4099 40.1032 42.1677 40.1032 41.8773H39.641ZM40.634 42.8721H52.0113V42.4099H40.634V42.8721ZM51.7815 42.6166C51.7262 43.1374 51.8143 43.6748 52.0836 44.1586L52.4875 43.9337C52.2693 43.5418 52.1948 43.1017 52.2411 42.6654L51.7815 42.6166ZM52.0834 44.1582L52.6929 45.2579L53.0972 45.0338L52.4877 43.9341L52.0834 44.1582ZM52.8951 44.9147H33.1067V45.377H52.8951V44.9147ZM33.3088 45.2579L33.9183 44.1582L33.514 43.9341L32.9045 45.0338L33.3088 45.2579ZM33.9197 44.1555C33.9949 44.0156 34.0642 43.8669 34.1111 43.7022L33.6666 43.5755C33.6323 43.6959 33.5796 43.812 33.5126 43.9368L33.9197 44.1555ZM33.7488 43.8227L34.0028 44.0162L34.2829 43.6485L34.0289 43.455L33.7488 43.8227ZM34.0017 44.0154C34.1769 44.1505 34.3899 44.2162 34.5999 44.2162V43.754C34.4848 43.754 34.3728 43.7178 34.2839 43.6493L34.0017 44.0154ZM34.5999 44.2162C34.879 44.2162 35.1558 44.0964 35.3524 43.873L35.0055 43.5676C34.8974 43.6904 34.7475 43.754 34.5999 43.754V44.2162ZM35.3544 43.8708L37.6603 41.1827L37.3095 40.8817L35.0035 43.5699L35.3544 43.8708ZM37.6593 41.1838C38.0197 40.7691 37.9636 40.135 37.5556 39.7788L37.2516 40.127C37.4734 40.3206 37.4986 40.664 37.3104 40.8806L37.6593 41.1838ZM37.5556 39.7788C37.1414 39.4172 36.5079 39.4736 36.1524 39.8828L36.5013 40.1859C36.6943 39.9638 37.036 39.9388 37.2516 40.127L37.5556 39.7788ZM36.1517 39.8836L34.3028 42.0321L34.6532 42.3336L36.502 40.1851L36.1517 39.8836ZM34.6166 41.9978L33.6516 41.2749L33.3744 41.6448L34.3395 42.3678L34.6166 41.9978ZM33.698 41.3214C33.6297 41.2302 33.5513 41.1405 33.4633 41.0523L33.136 41.3787C33.2106 41.4534 33.2743 41.5267 33.3279 41.5983L33.698 41.3214ZM33.4615 41.0505C32.424 40.033 30.7496 40.0663 29.7566 41.1511L30.0976 41.4632C30.9128 40.5726 32.2858 40.5449 33.1378 41.3805L33.4615 41.0505ZM29.7574 41.1502L28.0813 42.9627L28.4207 43.2765L30.0968 41.4641L29.7574 41.1502ZM28.4821 43.1196V25.3617H28.0199V43.1196H28.4821ZM28.251 25.5928H51.0361V25.1306H28.251V25.5928ZM51.0361 25.5928C51.5807 25.5928 52.0291 25.1426 52.0291 24.598H51.5668C51.5668 24.8884 51.3244 25.1306 51.0361 25.1306V25.5928ZM52.0291 24.598C52.0291 24.0534 51.5807 23.6033 51.0361 23.6033V24.0655C51.3244 24.0655 51.5668 24.3077 51.5668 24.598H52.0291ZM51.0361 23.6033H27.611V24.0655H51.0361V23.6033ZM27.611 23.6033C26.9918 23.6033 26.4961 24.118 26.4961 24.7304H26.9583C26.9583 24.3653 27.255 24.0655 27.611 24.0655V23.6033ZM26.4961 24.7304V44.7793H26.9583V24.7304H26.4961ZM26.5572 44.6228L24.1395 47.2498L24.4796 47.5628L26.8973 44.9358L26.5572 44.6228ZM24.5226 47.3168C24.4511 47.1466 24.4086 46.9632 24.4086 46.7852H23.9464C23.9464 47.0348 24.0054 47.2791 24.0965 47.4958L24.5226 47.3168ZM24.4086 46.7852V32.6318H23.9464V46.7852H24.4086ZM24.4086 32.6318C24.4086 32.0872 23.9603 31.6371 23.4156 31.6371V32.0993C23.704 32.0993 23.9464 32.3415 23.9464 32.6318H24.4086ZM23.4156 31.6371C22.871 31.6371 22.4226 32.0872 22.4226 32.6318H22.8849C22.8849 32.3415 23.1273 32.0993 23.4156 32.0993V31.6371ZM22.4226 32.6318V36.9899H22.8849V32.6318H22.4226ZM22.4593 36.865L17.8677 44.0129L18.2566 44.2627L22.8482 37.1148L22.4593 36.865ZM17.8678 44.0129C16.3649 46.3514 16.407 49.3437 17.9728 51.64L18.3547 51.3796C16.8933 49.2364 16.8542 46.4451 18.2566 44.2628L17.8678 44.0129ZM17.9728 51.6399L20.9086 55.947L21.2905 55.6867L18.3547 51.3796L17.9728 51.6399ZM20.9091 55.9479C21.2898 56.5011 21.5002 57.1511 21.5289 57.8325L21.9907 57.813C21.9585 57.0486 21.7219 56.3138 21.2899 55.6859L20.9091 55.9479ZM21.5289 57.8315L21.7117 62.6579L22.1736 62.6404L21.9908 57.814L21.5289 57.8315ZM21.7118 62.6607C21.7382 63.1888 22.1741 63.6265 22.7404 63.6133L22.7296 63.1512C22.4223 63.1584 22.1878 62.9242 22.1735 62.6377L21.7118 62.6607ZM22.7463 63.6131C23.2837 63.5869 23.7239 63.1385 23.6973 62.5771L23.2356 62.599C23.2495 62.893 23.0193 63.137 22.7237 63.1515L22.7463 63.6131ZM23.6974 62.5793L23.5145 57.7529L23.0526 57.7704L23.2355 62.5968L23.6974 62.5793ZM23.5145 57.7524C23.4721 56.7018 23.1438 55.6925 22.5501 54.8212L22.1682 55.0815C22.7123 55.8801 23.0137 56.8055 23.0526 57.771L23.5145 57.7524ZM22.5501 54.8212L19.6144 50.5141L19.2324 50.7744L22.1682 55.0815L22.5501 54.8212ZM19.6143 50.5139C18.4984 48.88 18.4694 46.7408 19.5463 45.078L19.1583 44.8268C17.98 46.6463 18.0119 48.9873 19.2325 50.7746L19.6143 50.5139ZM19.5467 45.0774L22.8583 39.9251L22.4695 39.6752L19.1579 44.8274L19.5467 45.0774ZM22.4328 39.8002V46.7852H22.895V39.8002H22.4328ZM22.4328 46.7852C22.4328 47.4854 22.6512 48.1529 23.0438 48.7103L23.4217 48.4442C23.0829 47.9631 22.895 47.3883 22.895 46.7852H22.4328ZM23.0635 48.4199L22.647 48.8679L22.9855 49.1827L23.402 48.7346L23.0635 48.4199ZM22.6471 48.8678C22.2746 49.2679 22.3026 49.9025 22.699 50.2734L23.0148 49.9358C22.8017 49.7365 22.7891 49.3936 22.9854 49.1828L22.6471 48.8678ZM22.699 50.2734C23.0986 50.6472 23.7326 50.619 24.1028 50.2214L23.7646 49.9064C23.5659 50.1198 23.2247 50.1322 23.0148 49.9358L22.699 50.2734ZM24.1038 50.2204L31.2146 42.492L30.8744 42.1791L23.7636 49.9074L24.1038 50.2204ZM31.2131 42.4936C31.4447 42.2465 31.8326 42.2309 32.0694 42.4682L32.3967 42.1418C31.963 41.7071 31.2741 41.7526 30.8759 42.1775L31.2131 42.4936ZM32.0694 42.4682C32.2624 42.6617 32.3046 42.9565 32.1737 43.1898L32.5768 43.416C32.8116 42.9975 32.7319 42.4778 32.3967 42.1418L32.0694 42.4682ZM32.173 43.1911L27.8963 50.9296L28.3009 51.1532L32.5775 43.4146L32.173 43.1911ZM27.8963 50.9297C27.5361 51.5818 27.605 52.3776 28.0837 52.951L28.4386 52.6548C28.0843 52.2304 28.0312 51.6414 28.3009 51.1531L27.8963 50.9297ZM28.083 52.9501C28.8638 53.8951 29.0935 55.2156 28.6929 56.3725L29.1297 56.5238C29.5823 55.2167 29.3244 53.7268 28.4393 52.6557L28.083 52.9501ZM28.6931 56.372C28.4715 57.0064 28.3559 57.6611 28.3349 58.3349L28.7969 58.3493C28.8165 57.7197 28.9243 57.1118 29.1295 56.5244L28.6931 56.372ZM28.3348 58.3368L28.2536 61.8802L28.7157 61.8908L28.7969 58.3474L28.3348 58.3368ZM28.2536 61.88C28.2404 62.4361 28.6888 62.9006 29.2465 62.9006V62.4384C28.9509 62.4384 28.7086 62.1902 28.7157 61.891L28.2536 61.88ZM29.2465 62.9006C29.7881 62.9006 30.2262 62.4751 30.2394 61.9319L29.7773 61.9206C29.7702 62.2123 29.5379 62.4384 29.2465 62.4384V62.9006ZM30.2394 61.9315L30.3207 58.3881L29.8586 58.3775L29.7773 61.9209L30.2394 61.9315ZM30.3207 58.3876C30.3303 57.9246 30.417 57.469 30.5629 57.0302L30.1243 56.8844C29.9655 57.362 29.8693 57.8635 29.8586 58.378L30.3207 58.3876ZM30.5617 57.0336C31.1982 55.2155 30.8268 53.1762 29.6081 51.6891L29.2506 51.9821C30.3683 53.346 30.708 55.2167 30.1255 56.8809L30.5617 57.0336ZM29.6362 51.7324C29.644 51.7482 29.6528 51.7732 29.6528 51.8063C29.6528 51.8379 29.6438 51.8969 29.593 51.9479L29.2657 51.6215C29.2047 51.6826 29.1906 51.7569 29.1906 51.8063C29.1906 51.8573 29.2045 51.9026 29.2225 51.9388L29.6362 51.7324ZM29.6319 51.896L30.6782 49.9919L30.2731 49.7693L29.2268 51.6734L29.6319 51.896ZM30.4756 50.1117H55.5057V49.6495H30.4756V50.1117ZM55.3032 49.9919L56.3495 51.896L56.7546 51.6734L55.7083 49.7693L55.3032 49.9919ZM56.3452 51.8879C56.339 51.8754 56.3217 51.8364 56.3296 51.7813C56.3339 51.7513 56.3456 51.7188 56.3675 51.689C56.3892 51.6596 56.4153 51.6405 56.4383 51.629L56.6454 52.0422C56.7197 52.005 56.7747 51.9344 56.7872 51.8466C56.7976 51.7737 56.7752 51.7144 56.7589 51.6815L56.3452 51.8879ZM56.3631 51.6891C55.1438 53.177 54.7838 55.216 55.4091 57.0325L55.8462 56.8821C55.2728 55.2162 55.6036 53.3452 56.7206 51.9821L56.3631 51.6891ZM55.4098 57.0345C55.5634 57.4676 55.6409 57.9215 55.6505 58.3876L56.1127 58.378C56.102 57.8666 56.0169 57.3634 55.8455 56.88L55.4098 57.0345ZM55.6506 58.3881L55.7318 61.9315L56.1939 61.9209L56.1127 58.3775L55.6506 58.3881ZM55.7318 61.932C55.745 62.4617 56.1812 62.9139 56.7504 62.9006L56.7397 62.4385C56.4353 62.4456 56.201 62.2053 56.1939 61.9205L55.7318 61.932ZM56.7507 62.9006C57.2948 62.8873 57.7309 62.4352 57.7177 61.88L57.2556 61.891C57.2627 62.1912 57.0283 62.4314 56.7394 62.4385L56.7507 62.9006ZM57.7177 61.8802L57.6364 58.3368L57.1743 58.3474L57.2556 61.8908L57.7177 61.8802ZM57.6364 58.3384C57.6259 57.6703 57.499 57.0043 57.2782 56.372L56.8418 56.5244C57.0476 57.1139 57.1645 57.7309 57.1743 58.3457L57.6364 58.3384ZM57.2784 56.3725C56.8777 55.2156 57.1074 53.8951 57.8883 52.9501L57.5319 52.6557C56.6468 53.7268 56.3889 55.2167 56.8416 56.5238L57.2784 56.3725ZM57.8875 52.951C58.3662 52.3776 58.4351 51.5818 58.0749 50.9297L57.6703 51.1531C57.94 51.6414 57.887 52.2304 57.5327 52.6548L57.8875 52.951ZM58.0749 50.9296L53.7983 43.1911L53.3937 43.4146L57.6704 51.1532L58.0749 50.9296ZM53.7975 43.1898C53.6667 42.9566 53.7088 42.6617 53.9018 42.4682L53.5746 42.1418C53.2394 42.4778 53.1596 42.9975 53.3944 43.416L53.7975 43.1898ZM53.9018 42.4682C54.1386 42.2309 54.5265 42.2465 54.7581 42.4936L55.0953 42.1775C54.6971 41.7526 54.0082 41.7071 53.5746 42.1418L53.9018 42.4682ZM54.7566 42.492L61.8675 50.2204L62.2076 49.9074L55.0968 42.1791L54.7566 42.492ZM61.8684 50.2214C62.2386 50.619 62.8727 50.6472 63.2722 50.2734L62.9564 49.9358C62.7465 50.1322 62.4054 50.1198 62.2067 49.9064L61.8684 50.2214ZM63.2722 50.2734C63.6686 49.9025 63.6967 49.2679 63.3241 48.8678L62.9858 49.1828C63.1821 49.3936 63.1695 49.7365 62.9564 49.9358L63.2722 50.2734ZM63.3242 48.8679L62.9077 48.4199L62.5692 48.7346L62.9857 49.1827L63.3242 48.8679ZM62.9274 48.7103C63.32 48.1529 63.5384 47.4854 63.5384 46.7852H63.0762C63.0762 47.3883 62.8883 47.9631 62.5495 48.4442L62.9274 48.7103ZM63.5384 46.7852V39.8103H63.0762V46.7852H63.5384ZM63.1129 39.9353L66.4245 45.0875L66.8134 44.8376L63.5017 39.6854L63.1129 39.9353ZM66.4247 45.0878C67.3465 46.5175 67.463 48.2966 66.7448 49.8337L67.1636 50.0294C67.9488 48.3488 67.8215 46.4012 66.8132 44.8373L66.4247 45.0878ZM66.7452 49.8328C66.5057 50.3396 66.7345 50.9214 67.2186 51.1575L67.4212 50.742C67.1535 50.6115 67.0369 50.2973 67.1631 50.0303L66.7452 49.8328ZM67.2232 51.1597C67.7102 51.384 68.3058 51.1873 68.5447 50.6819L68.1267 50.4844C67.9999 50.7529 67.6812 50.8617 67.4165 50.7398L67.2232 51.1597ZM68.5437 50.6839C69.5951 48.513 69.4264 46.0144 68.134 44.0027L67.7451 44.2525C68.9516 46.1305 69.108 48.4583 68.1277 50.4824L68.5437 50.6839ZM31.5314 48.4545L32.4558 46.7744L32.0509 46.5516L31.1265 48.2317L31.5314 48.4545ZM32.2534 46.8941H53.7382V46.4319H32.2534V46.8941ZM53.5357 46.7744L54.4601 48.4545L54.8651 48.2317L53.9407 46.5516L53.5357 46.7744ZM54.6626 48.112H31.3289V48.5742H54.6626V48.112Z" fill="#017296" mask="url(#path-3-inside-1_7415_56445)"/>
<path d="M26.2266 35.8273V34.7305C26.2266 34.3141 25.8813 33.9688 25.4648 33.9688C25.0484 33.9688 24.7031 34.3141 24.7031 34.7305V35.8273C24.7031 36.2438 25.0484 36.5891 25.4648 36.5891C25.8914 36.5891 26.2266 36.2438 26.2266 35.8273Z" fill="#FBFDFE"/>
<path d="M37.3777 27.8545C37.0629 27.5803 36.5754 27.6209 36.3012 27.9358L34.4527 30.0787L33.3355 29.2561C33.0004 29.0022 32.523 29.0733 32.2691 29.4186C32.0152 29.7537 32.0863 30.2311 32.4316 30.485L34.1176 31.7342C34.2496 31.8358 34.4121 31.8865 34.5746 31.8865C34.7879 31.8865 35.0012 31.7951 35.1535 31.6225L37.459 28.9412C37.7332 28.6061 37.7027 28.1287 37.3777 27.8545Z" fill="#017296"/>
<path d="M54.9539 28.998H40.6133C40.1969 28.998 39.8516 29.3434 39.8516 29.7598C39.8516 30.1762 40.1969 30.5215 40.6133 30.5215H54.9438C55.3602 30.5215 55.7055 30.1762 55.7055 29.7598C55.7055 29.3434 55.3703 28.998 54.9539 28.998Z" fill="#017296"/>
<path d="M54.9539 35.0566H40.6133C40.1969 35.0566 39.8516 35.402 39.8516 35.8184C39.8516 36.2348 40.1969 36.5801 40.6133 36.5801H54.9438C55.3602 36.5801 55.7055 36.2348 55.7055 35.8184C55.7055 35.402 55.3703 35.0566 54.9539 35.0566Z" fill="#017296"/>
<path d="M36.585 33.9201C36.2904 33.6256 35.8029 33.6256 35.5084 33.9201L34.6959 34.7326L33.8834 33.9201C33.5889 33.6256 33.1014 33.6256 32.8068 33.9201C32.5123 34.2146 32.5123 34.7021 32.8068 34.9967L33.6193 35.8092L32.8068 36.6217C32.5123 36.9162 32.5123 37.4037 32.8068 37.6982C32.9592 37.8506 33.1521 37.9217 33.3451 37.9217C33.5381 37.9217 33.7311 37.8506 33.8834 37.6982L34.6959 36.8857L35.5084 37.6982C35.6607 37.8506 35.8537 37.9217 36.0467 37.9217C36.2396 37.9217 36.4326 37.8506 36.585 37.6982C36.8795 37.4037 36.8795 36.9162 36.585 36.6217L35.7725 35.8092L36.585 34.9967C36.8795 34.7021 36.8795 34.2146 36.585 33.9201Z" fill="#017296"/>
</svg>
